<mxfile host="65bd71144e">
    <diagram id="6rLvRgk2om1GnA1Y-yE1" name="Page-1">
        <mxGraphModel dx="728" dy="531" grid="1" gridSize="10" guides="1" tooltips="1" connect="1" arrows="1" fold="1" page="1" pageScale="1" pageWidth="850" pageHeight="1100" background="#ffffff" math="0" shadow="0">
            <root>
                <mxCell id="0"/>
                <mxCell id="1" parent="0"/>
                <mxCell id="2" value="Actor" style="shape=umlActor;verticalLabelPosition=bottom;verticalAlign=top;html=1;outlineConnect=0;fillColor=#6a00ff;fontColor=#ffffff;strokeColor=#3700CC;" parent="1" vertex="1">
                    <mxGeometry x="330" y="430" width="30" height="60" as="geometry"/>
                </mxCell>
                <mxCell id="3" value="&lt;font color=&quot;#000000&quot;&gt;books&lt;/font&gt;" style="ellipse;shape=cloud;whiteSpace=wrap;html=1;fillColor=#e1d5e7;strokeColor=#9673a6;" parent="1" vertex="1">
                    <mxGeometry x="130" y="290" width="140" height="100" as="geometry"/>
                </mxCell>
            </root>
        </mxGraphModel>
    </diagram>
    <diagram id="7UsPsMgrMz8n_KDrgPk7" name="Page-2">
        <mxGraphModel dx="1578" dy="531" grid="1" gridSize="10" guides="1" tooltips="1" connect="1" arrows="1" fold="1" page="1" pageScale="1" pageWidth="850" pageHeight="1100" background="#ffffff" math="0" shadow="0">
            <root>
                <mxCell id="k1qkVIDQbtKCZRHhtL1A-0"/>
                <mxCell id="k1qkVIDQbtKCZRHhtL1A-1" parent="k1qkVIDQbtKCZRHhtL1A-0"/>
                <mxCell id="YA3olqsjlG7RawKp5KHk-2" value="" style="edgeStyle=none;html=1;fontColor=#000000;" parent="k1qkVIDQbtKCZRHhtL1A-1" source="mCCPe71q-Hm6q-C0IqBe-0" target="mCCPe71q-Hm6q-C0IqBe-1" edge="1">
                    <mxGeometry relative="1" as="geometry"/>
                </mxCell>
                <mxCell id="YA3olqsjlG7RawKp5KHk-3" style="edgeStyle=none;html=1;fontColor=#000000;strokeColor=#000000;entryX=0;entryY=0.5;entryDx=0;entryDy=0;exitX=1.008;exitY=0.6;exitDx=0;exitDy=0;exitPerimeter=0;" parent="k1qkVIDQbtKCZRHhtL1A-1" source="mCCPe71q-Hm6q-C0IqBe-0" target="mCCPe71q-Hm6q-C0IqBe-1" edge="1">
                    <mxGeometry relative="1" as="geometry">
                        <mxPoint x="330" y="195" as="targetPoint"/>
                    </mxGeometry>
                </mxCell>
                <mxCell id="mCCPe71q-Hm6q-C0IqBe-0" value="&lt;font color=&quot;#000000&quot;&gt;books&lt;/font&gt;" style="rounded=1;whiteSpace=wrap;html=1;fillColor=#e1d5e7;strokeColor=#9673a6;" parent="k1qkVIDQbtKCZRHhtL1A-1" vertex="1">
                    <mxGeometry x="110" y="160" width="120" height="70" as="geometry"/>
                </mxCell>
                <mxCell id="mCCPe71q-Hm6q-C0IqBe-1" value="&lt;font color=&quot;#000000&quot;&gt;are in&lt;/font&gt;" style="rhombus;whiteSpace=wrap;html=1;fillColor=#e1d5e7;strokeColor=#9673a6;" parent="k1qkVIDQbtKCZRHhtL1A-1" vertex="1">
                    <mxGeometry x="340" y="160" width="80" height="80" as="geometry"/>
                </mxCell>
                <mxCell id="mCCPe71q-Hm6q-C0IqBe-2" value="&lt;font color=&quot;#000000&quot;&gt;library&lt;/font&gt;" style="rounded=1;whiteSpace=wrap;html=1;fillColor=#e1d5e7;strokeColor=#9673a6;" parent="k1qkVIDQbtKCZRHhtL1A-1" vertex="1">
                    <mxGeometry x="510" y="160" width="140" height="70" as="geometry"/>
                </mxCell>
                <mxCell id="YA3olqsjlG7RawKp5KHk-1" value="" style="endArrow=classic;html=1;fontColor=#000000;" parent="k1qkVIDQbtKCZRHhtL1A-1" edge="1">
                    <mxGeometry width="50" height="50" relative="1" as="geometry">
                        <mxPoint x="370" y="300" as="sourcePoint"/>
                        <mxPoint x="420" y="250" as="targetPoint"/>
                    </mxGeometry>
                </mxCell>
                <mxCell id="YA3olqsjlG7RawKp5KHk-4" style="edgeStyle=none;html=1;fontColor=#000000;strokeColor=#000000;" parent="k1qkVIDQbtKCZRHhtL1A-1" edge="1">
                    <mxGeometry relative="1" as="geometry">
                        <mxPoint x="510" y="196.81" as="targetPoint"/>
                        <mxPoint x="420" y="197" as="sourcePoint"/>
                    </mxGeometry>
                </mxCell>
                <mxCell id="YA3olqsjlG7RawKp5KHk-8" value="" style="edgeStyle=none;html=1;fontColor=#000000;strokeColor=#000000;" parent="k1qkVIDQbtKCZRHhtL1A-1" source="YA3olqsjlG7RawKp5KHk-7" target="mCCPe71q-Hm6q-C0IqBe-0" edge="1">
                    <mxGeometry relative="1" as="geometry"/>
                </mxCell>
                <mxCell id="YA3olqsjlG7RawKp5KHk-7" value="Book_ID" style="ellipse;whiteSpace=wrap;html=1;fontColor=#333333;fillColor=#f5f5f5;strokeColor=#666666;" parent="k1qkVIDQbtKCZRHhtL1A-1" vertex="1">
                    <mxGeometry x="80" y="120" width="60" height="30" as="geometry"/>
                </mxCell>
                <mxCell id="YA3olqsjlG7RawKp5KHk-20" style="edgeStyle=none;html=1;entryX=0.5;entryY=0;entryDx=0;entryDy=0;fontColor=#000000;strokeColor=#000000;" parent="k1qkVIDQbtKCZRHhtL1A-1" source="YA3olqsjlG7RawKp5KHk-9" target="mCCPe71q-Hm6q-C0IqBe-0" edge="1">
                    <mxGeometry relative="1" as="geometry"/>
                </mxCell>
                <mxCell id="YA3olqsjlG7RawKp5KHk-9" value="Book&lt;span style=&quot;color: rgba(0 , 0 , 0 , 0) ; font-family: monospace ; font-size: 0px&quot;&gt;%3CmxGraphModel%3E%3Croot%3E%3CmxCell%20id%3D%220%22%2F%3E%3CmxCell%20id%3D%221%22%20parent%3D%220%22%2F%3E%3CmxCell%20id%3D%222%22%20value%3D%22Book_ID%22%20style%3D%22ellipse%3BwhiteSpace%3Dwrap%3Bhtml%3D1%3BfontColor%3D%23333333%3BfillColor%3D%23f5f5f5%3BstrokeColor%3D%23666666%3B%22%20vertex%3D%221%22%20parent%3D%221%22%3E%3CmxGeometry%20x%3D%2240%22%20y%3D%22120%22%20width%3D%2260%22%20height%3D%2230%22%20as%3D%22geometry%22%2F%3E%3C%2FmxCell%3E%3C%2Froot%3E%3C%2FmxGraphModel%3E&lt;/span&gt;&lt;br&gt;_title" style="ellipse;whiteSpace=wrap;html=1;fontColor=#333333;fillColor=#f5f5f5;strokeColor=#666666;" parent="k1qkVIDQbtKCZRHhtL1A-1" vertex="1">
                    <mxGeometry x="140" y="100" width="60" height="30" as="geometry"/>
                </mxCell>
                <mxCell id="YA3olqsjlG7RawKp5KHk-43" value="" style="edgeStyle=none;html=1;fontColor=#000000;strokeColor=#000000;entryX=0;entryY=1;entryDx=0;entryDy=0;" parent="k1qkVIDQbtKCZRHhtL1A-1" source="YA3olqsjlG7RawKp5KHk-10" target="mCCPe71q-Hm6q-C0IqBe-0" edge="1">
                    <mxGeometry relative="1" as="geometry"/>
                </mxCell>
                <mxCell id="YA3olqsjlG7RawKp5KHk-10" value="Book_description" style="ellipse;whiteSpace=wrap;html=1;fontColor=#333333;fillColor=#f5f5f5;strokeColor=#666666;" parent="k1qkVIDQbtKCZRHhtL1A-1" vertex="1">
                    <mxGeometry x="90" y="260" width="100" height="30" as="geometry"/>
                </mxCell>
                <mxCell id="YA3olqsjlG7RawKp5KHk-23" value="" style="edgeStyle=none;html=1;fontColor=#000000;strokeColor=#000000;entryX=1.042;entryY=0.9;entryDx=0;entryDy=0;entryPerimeter=0;" parent="k1qkVIDQbtKCZRHhtL1A-1" source="YA3olqsjlG7RawKp5KHk-11" target="mCCPe71q-Hm6q-C0IqBe-0" edge="1">
                    <mxGeometry relative="1" as="geometry"/>
                </mxCell>
                <mxCell id="YA3olqsjlG7RawKp5KHk-11" value="Book_genre" style="ellipse;whiteSpace=wrap;html=1;fontColor=#333333;fillColor=#f5f5f5;strokeColor=#666666;" parent="k1qkVIDQbtKCZRHhtL1A-1" vertex="1">
                    <mxGeometry x="215" y="230" width="100" height="30" as="geometry"/>
                </mxCell>
                <mxCell id="YA3olqsjlG7RawKp5KHk-17" style="edgeStyle=none;html=1;exitX=0.5;exitY=0;exitDx=0;exitDy=0;fontColor=#000000;strokeColor=#000000;" parent="k1qkVIDQbtKCZRHhtL1A-1" source="YA3olqsjlG7RawKp5KHk-13" edge="1">
                    <mxGeometry relative="1" as="geometry">
                        <mxPoint x="270" y="120" as="targetPoint"/>
                    </mxGeometry>
                </mxCell>
                <mxCell id="YA3olqsjlG7RawKp5KHk-13" value="Book_author" style="ellipse;whiteSpace=wrap;html=1;fontColor=#333333;fillColor=#f5f5f5;strokeColor=#666666;" parent="k1qkVIDQbtKCZRHhtL1A-1" vertex="1">
                    <mxGeometry x="220" y="120" width="90" height="30" as="geometry"/>
                </mxCell>
                <mxCell id="YA3olqsjlG7RawKp5KHk-29" value="" style="edgeStyle=none;html=1;fontColor=#000000;strokeColor=#000000;entryX=0.25;entryY=0;entryDx=0;entryDy=0;" parent="k1qkVIDQbtKCZRHhtL1A-1" source="YA3olqsjlG7RawKp5KHk-14" target="mCCPe71q-Hm6q-C0IqBe-2" edge="1">
                    <mxGeometry relative="1" as="geometry">
                        <Array as="points">
                            <mxPoint x="530" y="130"/>
                        </Array>
                    </mxGeometry>
                </mxCell>
                <mxCell id="YA3olqsjlG7RawKp5KHk-14" value="Purchase_date&lt;span style=&quot;color: rgba(0 , 0 , 0 , 0) ; font-family: monospace ; font-size: 0px&quot;&gt;%3CmxGraphModel%3E%3Croot%3E%3CmxCell%20id%3D%220%22%2F%3E%3CmxCell%20id%3D%221%22%20parent%3D%220%22%2F%3E%3CmxCell%20id%3D%222%22%20value%3D%22Book_author%22%20style%3D%22ellipse%3BwhiteSpace%3Dwrap%3Bhtml%3D1%3BfontColor%3D%23333333%3BfillColor%3D%23f5f5f5%3BstrokeColor%3D%23666666%3B%22%20vertex%3D%221%22%20parent%3D%221%22%3E%3CmxGeometry%20x%3D%22150%22%20y%3D%22130%22%20width%3D%22100%22%20height%3D%2230%22%20as%3D%22geometry%22%2F%3E%3C%2FmxCell%3E%3C%2Froot%3E%3C%2FmxGraphModel%3E&lt;/span&gt;" style="ellipse;whiteSpace=wrap;html=1;fontColor=#333333;fillColor=#f5f5f5;strokeColor=#666666;" parent="k1qkVIDQbtKCZRHhtL1A-1" vertex="1">
                    <mxGeometry x="470" y="80" width="100" height="30" as="geometry"/>
                </mxCell>
                <mxCell id="YA3olqsjlG7RawKp5KHk-30" value="" style="edgeStyle=none;html=1;fontColor=#000000;strokeColor=#000000;" parent="k1qkVIDQbtKCZRHhtL1A-1" source="YA3olqsjlG7RawKp5KHk-15" target="mCCPe71q-Hm6q-C0IqBe-2" edge="1">
                    <mxGeometry relative="1" as="geometry"/>
                </mxCell>
                <mxCell id="YA3olqsjlG7RawKp5KHk-15" value="place_of_purchase" style="ellipse;whiteSpace=wrap;html=1;fontColor=#333333;fillColor=#f5f5f5;strokeColor=#666666;" parent="k1qkVIDQbtKCZRHhtL1A-1" vertex="1">
                    <mxGeometry x="560" y="100" width="100" height="30" as="geometry"/>
                </mxCell>
                <mxCell id="YA3olqsjlG7RawKp5KHk-22" value="" style="edgeStyle=none;html=1;fontColor=#000000;strokeColor=#000000;" parent="k1qkVIDQbtKCZRHhtL1A-1" source="YA3olqsjlG7RawKp5KHk-16" edge="1">
                    <mxGeometry relative="1" as="geometry">
                        <mxPoint x="230" y="190" as="targetPoint"/>
                    </mxGeometry>
                </mxCell>
                <mxCell id="YA3olqsjlG7RawKp5KHk-16" value="Year of publication" style="ellipse;whiteSpace=wrap;html=1;fontColor=#333333;fillColor=#f5f5f5;strokeColor=#666666;" parent="k1qkVIDQbtKCZRHhtL1A-1" vertex="1">
                    <mxGeometry x="240" y="150" width="100" height="30" as="geometry"/>
                </mxCell>
                <mxCell id="YA3olqsjlG7RawKp5KHk-21" value="" style="edgeStyle=none;html=1;fontColor=#000000;strokeColor=#000000;entryX=0.683;entryY=-0.029;entryDx=0;entryDy=0;entryPerimeter=0;" parent="k1qkVIDQbtKCZRHhtL1A-1" source="YA3olqsjlG7RawKp5KHk-18" target="mCCPe71q-Hm6q-C0IqBe-0" edge="1">
                    <mxGeometry relative="1" as="geometry"/>
                </mxCell>
                <mxCell id="YA3olqsjlG7RawKp5KHk-18" value="Publisher" style="ellipse;whiteSpace=wrap;html=1;fontColor=#333333;fillColor=#f5f5f5;strokeColor=#666666;" parent="k1qkVIDQbtKCZRHhtL1A-1" vertex="1">
                    <mxGeometry x="200" y="70" width="90" height="30" as="geometry"/>
                </mxCell>
                <mxCell id="YA3olqsjlG7RawKp5KHk-41" value="" style="edgeStyle=none;html=1;fontColor=#000000;strokeColor=#000000;entryX=0;entryY=0.75;entryDx=0;entryDy=0;" parent="k1qkVIDQbtKCZRHhtL1A-1" source="YA3olqsjlG7RawKp5KHk-19" target="mCCPe71q-Hm6q-C0IqBe-0" edge="1">
                    <mxGeometry relative="1" as="geometry"/>
                </mxCell>
                <mxCell id="YA3olqsjlG7RawKp5KHk-19" value="Price" style="ellipse;whiteSpace=wrap;html=1;fontColor=#333333;fillColor=#f5f5f5;strokeColor=#666666;" parent="k1qkVIDQbtKCZRHhtL1A-1" vertex="1">
                    <mxGeometry x="10" y="170" width="80" height="30" as="geometry"/>
                </mxCell>
                <mxCell id="YA3olqsjlG7RawKp5KHk-28" value="" style="edgeStyle=none;html=1;fontColor=#000000;strokeColor=#000000;entryX=0.25;entryY=1;entryDx=0;entryDy=0;" parent="k1qkVIDQbtKCZRHhtL1A-1" source="YA3olqsjlG7RawKp5KHk-27" target="mCCPe71q-Hm6q-C0IqBe-2" edge="1">
                    <mxGeometry relative="1" as="geometry">
                        <mxPoint x="560" y="250" as="targetPoint"/>
                    </mxGeometry>
                </mxCell>
                <mxCell id="YA3olqsjlG7RawKp5KHk-27" value="position in the library" style="ellipse;whiteSpace=wrap;html=1;fontColor=#333333;fillColor=#f5f5f5;strokeColor=#666666;" parent="k1qkVIDQbtKCZRHhtL1A-1" vertex="1">
                    <mxGeometry x="460" y="250" width="100" height="30" as="geometry"/>
                </mxCell>
                <mxCell id="YA3olqsjlG7RawKp5KHk-34" value="" style="edgeStyle=none;html=1;fontColor=#000000;strokeColor=#000000;" parent="k1qkVIDQbtKCZRHhtL1A-1" source="YA3olqsjlG7RawKp5KHk-32" target="mCCPe71q-Hm6q-C0IqBe-2" edge="1">
                    <mxGeometry relative="1" as="geometry"/>
                </mxCell>
                <mxCell id="YA3olqsjlG7RawKp5KHk-32" value="book owner" style="ellipse;whiteSpace=wrap;html=1;fontColor=#333333;fillColor=#f5f5f5;strokeColor=#666666;" parent="k1qkVIDQbtKCZRHhtL1A-1" vertex="1">
                    <mxGeometry x="590" y="270" width="100" height="30" as="geometry"/>
                </mxCell>
                <mxCell id="YA3olqsjlG7RawKp5KHk-36" value="" style="edgeStyle=none;html=1;fontColor=#000000;strokeColor=#000000;entryX=0;entryY=0.25;entryDx=0;entryDy=0;" parent="k1qkVIDQbtKCZRHhtL1A-1" source="YA3olqsjlG7RawKp5KHk-35" target="mCCPe71q-Hm6q-C0IqBe-2" edge="1">
                    <mxGeometry relative="1" as="geometry"/>
                </mxCell>
                <mxCell id="YA3olqsjlG7RawKp5KHk-35" value="start reading_date&lt;span style=&quot;color: rgba(0 , 0 , 0 , 0) ; font-family: monospace ; font-size: 0px&quot;&gt;%3CmxGraphModel%3E%3Croot%3E%3CmxCell%20id%3D%220%22%2F%3E%3CmxCell%20id%3D%221%22%20parent%3D%220%22%2F%3E%3CmxCell%20id%3D%222%22%20value%3D%22Book_author%22%20style%3D%22ellipse%3BwhiteSpace%3Dwrap%3Bhtml%3D1%3BfontColor%3D%23333333%3BfillColor%3D%23f5f5f5%3BstrokeColor%3D%23666666%3B%22%20vertex%3D%221%22%20parent%3D%221%22%3E%3CmxGeometry%20x%3D%22150%22%20y%3D%22130%22%20width%3D%22100%22%20height%3D%2230%22%20as%3D%22geometry%22%2F%3E%3C%2FmxCell%3E%3C%2Froot%3E%3C%2FmxGraphModel%3E&lt;/span&gt;" style="ellipse;whiteSpace=wrap;html=1;fontColor=#333333;fillColor=#f5f5f5;strokeColor=#666666;" parent="k1qkVIDQbtKCZRHhtL1A-1" vertex="1">
                    <mxGeometry x="395" y="150" width="100" height="20" as="geometry"/>
                </mxCell>
                <mxCell id="YA3olqsjlG7RawKp5KHk-38" value="" style="edgeStyle=none;html=1;fontColor=#000000;strokeColor=#000000;" parent="k1qkVIDQbtKCZRHhtL1A-1" source="YA3olqsjlG7RawKp5KHk-37" edge="1">
                    <mxGeometry relative="1" as="geometry">
                        <mxPoint x="510" y="160" as="targetPoint"/>
                    </mxGeometry>
                </mxCell>
                <mxCell id="YA3olqsjlG7RawKp5KHk-37" value="end reading_date&lt;span style=&quot;color: rgba(0 , 0 , 0 , 0) ; font-family: monospace ; font-size: 0px&quot;&gt;%3CmxGraphModel%3E%3Croot%3E%3CmxCell%20id%3D%220%22%2F%3E%3CmxCell%20id%3D%221%22%20parent%3D%220%22%2F%3E%3CmxCell%20id%3D%222%22%20value%3D%22Book_author%22%20style%3D%22ellipse%3BwhiteSpace%3Dwrap%3Bhtml%3D1%3BfontColor%3D%23333333%3BfillColor%3D%23f5f5f5%3BstrokeColor%3D%23666666%3B%22%20vertex%3D%221%22%20parent%3D%221%22%3E%3CmxGeometry%20x%3D%22150%22%20y%3D%22130%22%20width%3D%22100%22%20height%3D%2230%22%20as%3D%22geometry%22%2F%3E%3C%2FmxCell%3E%3C%2Froot%3E%3C%2FmxGraphModel%3E&lt;/span&gt;" style="ellipse;whiteSpace=wrap;html=1;fontColor=#333333;fillColor=#f5f5f5;strokeColor=#666666;" parent="k1qkVIDQbtKCZRHhtL1A-1" vertex="1">
                    <mxGeometry x="390" y="110" width="100" height="30" as="geometry"/>
                </mxCell>
                <mxCell id="YA3olqsjlG7RawKp5KHk-45" value="" style="edgeStyle=none;html=1;fontColor=#000000;strokeColor=#000000;entryX=0.75;entryY=1;entryDx=0;entryDy=0;" parent="k1qkVIDQbtKCZRHhtL1A-1" source="YA3olqsjlG7RawKp5KHk-42" target="mCCPe71q-Hm6q-C0IqBe-0" edge="1">
                    <mxGeometry relative="1" as="geometry"/>
                </mxCell>
                <mxCell id="YA3olqsjlG7RawKp5KHk-42" value="Rating" style="ellipse;whiteSpace=wrap;html=1;fontColor=#333333;fillColor=#f5f5f5;strokeColor=#666666;" parent="k1qkVIDQbtKCZRHhtL1A-1" vertex="1">
                    <mxGeometry x="230" y="290" width="100" height="30" as="geometry"/>
                </mxCell>
                <mxCell id="YA3olqsjlG7RawKp5KHk-48" value="" style="edgeStyle=none;html=1;fontColor=#000000;strokeColor=#000000;entryX=-0.025;entryY=0.114;entryDx=0;entryDy=0;entryPerimeter=0;" parent="k1qkVIDQbtKCZRHhtL1A-1" source="YA3olqsjlG7RawKp5KHk-46" target="mCCPe71q-Hm6q-C0IqBe-0" edge="1">
                    <mxGeometry relative="1" as="geometry"/>
                </mxCell>
                <mxCell id="YA3olqsjlG7RawKp5KHk-46" value="Language" style="ellipse;whiteSpace=wrap;html=1;fontColor=#333333;fillColor=#f5f5f5;strokeColor=#666666;" parent="k1qkVIDQbtKCZRHhtL1A-1" vertex="1">
                    <mxGeometry x="-30" y="90" width="100" height="30" as="geometry"/>
                </mxCell>
                <mxCell id="H1473J9uJ4nPaUX2Ike7-1" value="" style="edgeStyle=none;html=1;fontColor=#000000;strokeColor=#000000;entryX=-0.025;entryY=0.914;entryDx=0;entryDy=0;entryPerimeter=0;" parent="k1qkVIDQbtKCZRHhtL1A-1" source="H1473J9uJ4nPaUX2Ike7-0" target="mCCPe71q-Hm6q-C0IqBe-0" edge="1">
                    <mxGeometry relative="1" as="geometry">
                        <mxPoint x="140" y="240" as="targetPoint"/>
                    </mxGeometry>
                </mxCell>
                <mxCell id="H1473J9uJ4nPaUX2Ike7-0" value="No. Book_pages" style="ellipse;whiteSpace=wrap;html=1;fontColor=#333333;fillColor=#f5f5f5;strokeColor=#666666;" parent="k1qkVIDQbtKCZRHhtL1A-1" vertex="1">
                    <mxGeometry x="-40" y="210" width="100" height="30" as="geometry"/>
                </mxCell>
            </root>
        </mxGraphModel>
    </diagram>
    <diagram id="W3sr2D_TtMu1SVe5gLwx" name="Page-3">
        <mxGraphModel dx="728" dy="531" grid="1" gridSize="10" guides="1" tooltips="1" connect="1" arrows="1" fold="1" page="1" pageScale="1" pageWidth="850" pageHeight="1100" background="#ffffff" math="0" shadow="0">
            <root>
                <mxCell id="9b7sv7j5eQdajbyT6HUZ-0"/>
                <mxCell id="9b7sv7j5eQdajbyT6HUZ-1" parent="9b7sv7j5eQdajbyT6HUZ-0"/>
                <mxCell id="9b7sv7j5eQdajbyT6HUZ-2" value="Books" style="swimlane;fontStyle=0;childLayout=stackLayout;horizontal=1;startSize=30;horizontalStack=0;resizeParent=1;resizeParentMax=0;resizeLast=0;collapsible=1;marginBottom=0;fillColor=#e1d5e7;strokeColor=#9673a6;fontColor=#000000;" parent="9b7sv7j5eQdajbyT6HUZ-1" vertex="1">
                    <mxGeometry x="40" y="120" width="150" height="330" as="geometry">
                        <mxRectangle x="40" y="120" width="70" height="30" as="alternateBounds"/>
                    </mxGeometry>
                </mxCell>
                <mxCell id="9b7sv7j5eQdajbyT6HUZ-3" value="Book_ID int" style="text;strokeColor=none;fillColor=none;align=left;verticalAlign=middle;spacingLeft=4;spacingRight=4;overflow=hidden;points=[[0,0.5],[1,0.5]];portConstraint=eastwest;rotatable=0;fontColor=#000000;" parent="9b7sv7j5eQdajbyT6HUZ-2" vertex="1">
                    <mxGeometry y="30" width="150" height="30" as="geometry"/>
                </mxCell>
                <mxCell id="9b7sv7j5eQdajbyT6HUZ-4" value="Book_Title varchar" style="text;strokeColor=none;fillColor=none;align=left;verticalAlign=middle;spacingLeft=4;spacingRight=4;overflow=hidden;points=[[0,0.5],[1,0.5]];portConstraint=eastwest;rotatable=0;fontColor=#000000;" parent="9b7sv7j5eQdajbyT6HUZ-2" vertex="1">
                    <mxGeometry y="60" width="150" height="30" as="geometry"/>
                </mxCell>
                <mxCell id="9b7sv7j5eQdajbyT6HUZ-5" value="Book_Author varchar" style="text;strokeColor=none;fillColor=none;align=left;verticalAlign=middle;spacingLeft=4;spacingRight=4;overflow=hidden;points=[[0,0.5],[1,0.5]];portConstraint=eastwest;rotatable=0;fontColor=#000000;" parent="9b7sv7j5eQdajbyT6HUZ-2" vertex="1">
                    <mxGeometry y="90" width="150" height="30" as="geometry"/>
                </mxCell>
                <mxCell id="J_aXvQ_W18XJpOH67qjU-0" value="Book_Language varchar" style="text;strokeColor=none;fillColor=none;align=left;verticalAlign=middle;spacingLeft=4;spacingRight=4;overflow=hidden;points=[[0,0.5],[1,0.5]];portConstraint=eastwest;rotatable=0;fontColor=#000000;" parent="9b7sv7j5eQdajbyT6HUZ-2" vertex="1">
                    <mxGeometry y="120" width="150" height="30" as="geometry"/>
                </mxCell>
                <mxCell id="sLPIq9usLV8gZ3yYGozx-0" value="Book_Price int" style="text;strokeColor=none;fillColor=none;align=left;verticalAlign=middle;spacingLeft=4;spacingRight=4;overflow=hidden;points=[[0,0.5],[1,0.5]];portConstraint=eastwest;rotatable=0;fontColor=#000000;" parent="9b7sv7j5eQdajbyT6HUZ-2" vertex="1">
                    <mxGeometry y="150" width="150" height="30" as="geometry"/>
                </mxCell>
                <mxCell id="b36-PSJgD1ZRlTOeraYy-0" value="Book_Description varchar" style="text;strokeColor=none;fillColor=none;align=left;verticalAlign=middle;spacingLeft=4;spacingRight=4;overflow=hidden;points=[[0,0.5],[1,0.5]];portConstraint=eastwest;rotatable=0;fontColor=#000000;" parent="9b7sv7j5eQdajbyT6HUZ-2" vertex="1">
                    <mxGeometry y="180" width="150" height="30" as="geometry"/>
                </mxCell>
                <mxCell id="30uT9GBD3mwZIQLNWgX6-0" value="Book_Genre varchar" style="text;strokeColor=none;fillColor=none;align=left;verticalAlign=middle;spacingLeft=4;spacingRight=4;overflow=hidden;points=[[0,0.5],[1,0.5]];portConstraint=eastwest;rotatable=0;fontColor=#000000;" parent="9b7sv7j5eQdajbyT6HUZ-2" vertex="1">
                    <mxGeometry y="210" width="150" height="30" as="geometry"/>
                </mxCell>
                <mxCell id="anMaoTG4It0d-EkjgR_x-0" value="Book_No_Pages int" style="text;strokeColor=none;fillColor=none;align=left;verticalAlign=middle;spacingLeft=4;spacingRight=4;overflow=hidden;points=[[0,0.5],[1,0.5]];portConstraint=eastwest;rotatable=0;fontColor=#000000;" parent="9b7sv7j5eQdajbyT6HUZ-2" vertex="1">
                    <mxGeometry y="240" width="150" height="30" as="geometry"/>
                </mxCell>
                <mxCell id="3FpNngKE63Co_ELG_VhW-0" value="Book_Year_of_Publication int" style="text;strokeColor=none;fillColor=none;align=left;verticalAlign=middle;spacingLeft=4;spacingRight=4;overflow=hidden;points=[[0,0.5],[1,0.5]];portConstraint=eastwest;rotatable=0;fontColor=#000000;" parent="9b7sv7j5eQdajbyT6HUZ-2" vertex="1">
                    <mxGeometry y="270" width="150" height="30" as="geometry"/>
                </mxCell>
                <mxCell id="3FpNngKE63Co_ELG_VhW-1" value="Book_rating varchar" style="text;strokeColor=none;fillColor=none;align=left;verticalAlign=middle;spacingLeft=4;spacingRight=4;overflow=hidden;points=[[0,0.5],[1,0.5]];portConstraint=eastwest;rotatable=0;fontColor=#000000;" parent="9b7sv7j5eQdajbyT6HUZ-2" vertex="1">
                    <mxGeometry y="300" width="150" height="30" as="geometry"/>
                </mxCell>
                <mxCell id="BNFR2FQvSF2xZz-QHLAV-0" value="Connector" style="swimlane;fontStyle=0;childLayout=stackLayout;horizontal=1;startSize=30;horizontalStack=0;resizeParent=1;resizeParentMax=0;resizeLast=0;collapsible=1;marginBottom=0;fontColor=#FFFCFE;gradientColor=none;rounded=0;" parent="9b7sv7j5eQdajbyT6HUZ-1" vertex="1">
                    <mxGeometry x="250" y="160" width="140" height="120" as="geometry"/>
                </mxCell>
                <mxCell id="BNFR2FQvSF2xZz-QHLAV-1" value="Connector_ID" style="text;strokeColor=none;fillColor=none;align=left;verticalAlign=middle;spacingLeft=4;spacingRight=4;overflow=hidden;points=[[0,0.5],[1,0.5]];portConstraint=eastwest;rotatable=0;fontColor=#000000;strokeWidth=3;" parent="BNFR2FQvSF2xZz-QHLAV-0" vertex="1">
                    <mxGeometry y="30" width="140" height="30" as="geometry"/>
                </mxCell>
                <mxCell id="BNFR2FQvSF2xZz-QHLAV-2" value="FK_Book_ID" style="text;strokeColor=none;fillColor=none;align=left;verticalAlign=middle;spacingLeft=4;spacingRight=4;overflow=hidden;points=[[0,0.5],[1,0.5]];portConstraint=eastwest;rotatable=0;fontColor=#000000;" parent="BNFR2FQvSF2xZz-QHLAV-0" vertex="1">
                    <mxGeometry y="60" width="140" height="30" as="geometry"/>
                </mxCell>
                <mxCell id="BNFR2FQvSF2xZz-QHLAV-3" value="FK_Library_ID" style="text;strokeColor=none;fillColor=none;align=left;verticalAlign=middle;spacingLeft=4;spacingRight=4;overflow=hidden;points=[[0,0.5],[1,0.5]];portConstraint=eastwest;rotatable=0;fontColor=#000000;" parent="BNFR2FQvSF2xZz-QHLAV-0" vertex="1">
                    <mxGeometry y="90" width="140" height="30" as="geometry"/>
                </mxCell>
                <mxCell id="BNFR2FQvSF2xZz-QHLAV-4" value="Library" style="swimlane;fontStyle=0;childLayout=stackLayout;horizontal=1;startSize=30;horizontalStack=0;resizeParent=1;resizeParentMax=0;resizeLast=0;collapsible=1;marginBottom=0;fillColor=#e1d5e7;strokeColor=#9673a6;fontColor=#000000;" parent="9b7sv7j5eQdajbyT6HUZ-1" vertex="1">
                    <mxGeometry x="460" y="120" width="160" height="240" as="geometry"/>
                </mxCell>
                <mxCell id="BNFR2FQvSF2xZz-QHLAV-6" value="Library_ID int" style="text;strokeColor=none;fillColor=none;align=left;verticalAlign=middle;spacingLeft=4;spacingRight=4;overflow=hidden;points=[[0,0.5],[1,0.5]];portConstraint=eastwest;rotatable=0;fontColor=#000000;" parent="BNFR2FQvSF2xZz-QHLAV-4" vertex="1">
                    <mxGeometry y="30" width="160" height="30" as="geometry"/>
                </mxCell>
                <mxCell id="BNFR2FQvSF2xZz-QHLAV-7" value="Purchase_date int" style="text;strokeColor=none;fillColor=none;align=left;verticalAlign=middle;spacingLeft=4;spacingRight=4;overflow=hidden;points=[[0,0.5],[1,0.5]];portConstraint=eastwest;rotatable=0;fontColor=#000000;" parent="BNFR2FQvSF2xZz-QHLAV-4" vertex="1">
                    <mxGeometry y="60" width="160" height="30" as="geometry"/>
                </mxCell>
                <mxCell id="j97qZSBM09JVtnT_cv-r-0" value="Place of purchase varchar" style="text;strokeColor=none;fillColor=none;align=left;verticalAlign=middle;spacingLeft=4;spacingRight=4;overflow=hidden;points=[[0,0.5],[1,0.5]];portConstraint=eastwest;rotatable=0;fontColor=#000000;" parent="BNFR2FQvSF2xZz-QHLAV-4" vertex="1">
                    <mxGeometry y="90" width="160" height="30" as="geometry"/>
                </mxCell>
                <mxCell id="Gi14wSuS1q8nlKV07160-5" value="Book owner varchar" style="text;strokeColor=none;fillColor=none;align=left;verticalAlign=middle;spacingLeft=4;spacingRight=4;overflow=hidden;points=[[0,0.5],[1,0.5]];portConstraint=eastwest;rotatable=0;fontColor=#000000;" parent="BNFR2FQvSF2xZz-QHLAV-4" vertex="1">
                    <mxGeometry y="120" width="160" height="30" as="geometry"/>
                </mxCell>
                <mxCell id="8mlCmz3OQOkDw6g3gFEW-0" value="Start reading date int" style="text;strokeColor=none;fillColor=none;align=left;verticalAlign=middle;spacingLeft=4;spacingRight=4;overflow=hidden;points=[[0,0.5],[1,0.5]];portConstraint=eastwest;rotatable=0;fontColor=#000000;" parent="BNFR2FQvSF2xZz-QHLAV-4" vertex="1">
                    <mxGeometry y="150" width="160" height="30" as="geometry"/>
                </mxCell>
                <mxCell id="eq2kSclWfwLRwsbcr4UZ-0" value="End reading date int" style="text;strokeColor=none;fillColor=none;align=left;verticalAlign=middle;spacingLeft=4;spacingRight=4;overflow=hidden;points=[[0,0.5],[1,0.5]];portConstraint=eastwest;rotatable=0;fontColor=#000000;" parent="BNFR2FQvSF2xZz-QHLAV-4" vertex="1">
                    <mxGeometry y="180" width="160" height="30" as="geometry"/>
                </mxCell>
                <mxCell id="2V16B7SuNHA6tf4OJqzn-0" value="Position in the library int" style="text;strokeColor=none;fillColor=none;align=left;verticalAlign=middle;spacingLeft=4;spacingRight=4;overflow=hidden;points=[[0,0.5],[1,0.5]];portConstraint=eastwest;rotatable=0;fontColor=#000000;" parent="BNFR2FQvSF2xZz-QHLAV-4" vertex="1">
                    <mxGeometry y="210" width="160" height="30" as="geometry"/>
                </mxCell>
                <mxCell id="dg-UkQUO4oZ-4vsTmZtU-1" value="" style="edgeStyle=elbowEdgeStyle;elbow=horizontal;endArrow=ERone;html=1;fontColor=#FFFCFE;strokeColor=#000000;endFill=0;" parent="9b7sv7j5eQdajbyT6HUZ-1" edge="1">
                    <mxGeometry width="50" height="50" relative="1" as="geometry">
                        <mxPoint x="190" y="160" as="sourcePoint"/>
                        <mxPoint x="240" y="230" as="targetPoint"/>
                    </mxGeometry>
                </mxCell>
                <mxCell id="dg-UkQUO4oZ-4vsTmZtU-2" value="" style="edgeStyle=elbowEdgeStyle;elbow=horizontal;endArrow=ERone;html=1;fontColor=#FFFCFE;strokeColor=#000000;entryX=0;entryY=0.5;entryDx=0;entryDy=0;endFill=0;" parent="9b7sv7j5eQdajbyT6HUZ-1" target="BNFR2FQvSF2xZz-QHLAV-6" edge="1">
                    <mxGeometry width="50" height="50" relative="1" as="geometry">
                        <mxPoint x="390" y="265" as="sourcePoint"/>
                        <mxPoint x="440" y="215" as="targetPoint"/>
                    </mxGeometry>
                </mxCell>
            </root>
        </mxGraphModel>
    </diagram>
    <diagram id="uBQj-gRfiAF4VpxqZM8a" name="Page-4">
        <mxGraphModel dx="728" dy="531" grid="1" gridSize="10" guides="1" tooltips="1" connect="1" arrows="1" fold="1" page="1" pageScale="1" pageWidth="850" pageHeight="1100" background="#ffffff" math="0" shadow="0">
            <root>
                <mxCell id="Hjjc1uNWq8kmfBGz-ORb-0"/>
                <mxCell id="Hjjc1uNWq8kmfBGz-ORb-1" parent="Hjjc1uNWq8kmfBGz-ORb-0"/>
                <mxCell id="THLaUwiLYQUsx36Da8sF-0" value="Books" style="swimlane;fontStyle=0;childLayout=stackLayout;horizontal=1;startSize=30;horizontalStack=0;resizeParent=1;resizeParentMax=0;resizeLast=0;collapsible=1;marginBottom=0;fillColor=#e1d5e7;strokeColor=#9673a6;fontColor=#000000;" parent="Hjjc1uNWq8kmfBGz-ORb-1" vertex="1">
                    <mxGeometry x="40" y="120" width="150" height="330" as="geometry">
                        <mxRectangle x="40" y="120" width="70" height="30" as="alternateBounds"/>
                    </mxGeometry>
                </mxCell>
                <mxCell id="THLaUwiLYQUsx36Da8sF-1" value="Book_ID int" style="text;strokeColor=none;fillColor=none;align=left;verticalAlign=middle;spacingLeft=4;spacingRight=4;overflow=hidden;points=[[0,0.5],[1,0.5]];portConstraint=eastwest;rotatable=0;fontColor=#000000;" parent="THLaUwiLYQUsx36Da8sF-0" vertex="1">
                    <mxGeometry y="30" width="150" height="30" as="geometry"/>
                </mxCell>
                <mxCell id="THLaUwiLYQUsx36Da8sF-2" value="Book_Title varchar" style="text;strokeColor=none;fillColor=none;align=left;verticalAlign=middle;spacingLeft=4;spacingRight=4;overflow=hidden;points=[[0,0.5],[1,0.5]];portConstraint=eastwest;rotatable=0;fontColor=#000000;" parent="THLaUwiLYQUsx36Da8sF-0" vertex="1">
                    <mxGeometry y="60" width="150" height="30" as="geometry"/>
                </mxCell>
                <mxCell id="THLaUwiLYQUsx36Da8sF-3" value="Book_Author varchar" style="text;strokeColor=none;fillColor=none;align=left;verticalAlign=middle;spacingLeft=4;spacingRight=4;overflow=hidden;points=[[0,0.5],[1,0.5]];portConstraint=eastwest;rotatable=0;fontColor=#000000;" parent="THLaUwiLYQUsx36Da8sF-0" vertex="1">
                    <mxGeometry y="90" width="150" height="30" as="geometry"/>
                </mxCell>
                <mxCell id="THLaUwiLYQUsx36Da8sF-4" value="Book_Language varchar" style="text;strokeColor=none;fillColor=none;align=left;verticalAlign=middle;spacingLeft=4;spacingRight=4;overflow=hidden;points=[[0,0.5],[1,0.5]];portConstraint=eastwest;rotatable=0;fontColor=#000000;" parent="THLaUwiLYQUsx36Da8sF-0" vertex="1">
                    <mxGeometry y="120" width="150" height="30" as="geometry"/>
                </mxCell>
                <mxCell id="THLaUwiLYQUsx36Da8sF-5" value="Book_Price int" style="text;strokeColor=none;fillColor=none;align=left;verticalAlign=middle;spacingLeft=4;spacingRight=4;overflow=hidden;points=[[0,0.5],[1,0.5]];portConstraint=eastwest;rotatable=0;fontColor=#000000;" parent="THLaUwiLYQUsx36Da8sF-0" vertex="1">
                    <mxGeometry y="150" width="150" height="30" as="geometry"/>
                </mxCell>
                <mxCell id="THLaUwiLYQUsx36Da8sF-6" value="Book_Description varchar" style="text;strokeColor=none;fillColor=none;align=left;verticalAlign=middle;spacingLeft=4;spacingRight=4;overflow=hidden;points=[[0,0.5],[1,0.5]];portConstraint=eastwest;rotatable=0;fontColor=#000000;" parent="THLaUwiLYQUsx36Da8sF-0" vertex="1">
                    <mxGeometry y="180" width="150" height="30" as="geometry"/>
                </mxCell>
                <mxCell id="THLaUwiLYQUsx36Da8sF-7" value="Book_Genre varchar" style="text;strokeColor=none;fillColor=none;align=left;verticalAlign=middle;spacingLeft=4;spacingRight=4;overflow=hidden;points=[[0,0.5],[1,0.5]];portConstraint=eastwest;rotatable=0;fontColor=#000000;" parent="THLaUwiLYQUsx36Da8sF-0" vertex="1">
                    <mxGeometry y="210" width="150" height="30" as="geometry"/>
                </mxCell>
                <mxCell id="THLaUwiLYQUsx36Da8sF-8" value="Book_No_Pages int" style="text;strokeColor=none;fillColor=none;align=left;verticalAlign=middle;spacingLeft=4;spacingRight=4;overflow=hidden;points=[[0,0.5],[1,0.5]];portConstraint=eastwest;rotatable=0;fontColor=#000000;" parent="THLaUwiLYQUsx36Da8sF-0" vertex="1">
                    <mxGeometry y="240" width="150" height="30" as="geometry"/>
                </mxCell>
                <mxCell id="THLaUwiLYQUsx36Da8sF-9" value="Book_Year_of_Publication int" style="text;strokeColor=none;fillColor=none;align=left;verticalAlign=middle;spacingLeft=4;spacingRight=4;overflow=hidden;points=[[0,0.5],[1,0.5]];portConstraint=eastwest;rotatable=0;fontColor=#000000;" parent="THLaUwiLYQUsx36Da8sF-0" vertex="1">
                    <mxGeometry y="270" width="150" height="30" as="geometry"/>
                </mxCell>
                <mxCell id="THLaUwiLYQUsx36Da8sF-10" value="Book_rating varchar" style="text;strokeColor=none;fillColor=none;align=left;verticalAlign=middle;spacingLeft=4;spacingRight=4;overflow=hidden;points=[[0,0.5],[1,0.5]];portConstraint=eastwest;rotatable=0;fontColor=#000000;" parent="THLaUwiLYQUsx36Da8sF-0" vertex="1">
                    <mxGeometry y="300" width="150" height="30" as="geometry"/>
                </mxCell>
                <mxCell id="THLaUwiLYQUsx36Da8sF-11" value="Connector" style="swimlane;fontStyle=0;childLayout=stackLayout;horizontal=1;startSize=30;horizontalStack=0;resizeParent=1;resizeParentMax=0;resizeLast=0;collapsible=1;marginBottom=0;fontColor=#FFFCFE;gradientColor=none;rounded=0;" parent="Hjjc1uNWq8kmfBGz-ORb-1" vertex="1">
                    <mxGeometry x="250" y="160" width="140" height="120" as="geometry"/>
                </mxCell>
                <mxCell id="THLaUwiLYQUsx36Da8sF-12" value="Connector_ID" style="text;strokeColor=none;fillColor=none;align=left;verticalAlign=middle;spacingLeft=4;spacingRight=4;overflow=hidden;points=[[0,0.5],[1,0.5]];portConstraint=eastwest;rotatable=0;fontColor=#000000;strokeWidth=3;" parent="THLaUwiLYQUsx36Da8sF-11" vertex="1">
                    <mxGeometry y="30" width="140" height="30" as="geometry"/>
                </mxCell>
                <mxCell id="THLaUwiLYQUsx36Da8sF-13" value="FK_Book_ID" style="text;strokeColor=none;fillColor=none;align=left;verticalAlign=middle;spacingLeft=4;spacingRight=4;overflow=hidden;points=[[0,0.5],[1,0.5]];portConstraint=eastwest;rotatable=0;fontColor=#000000;" parent="THLaUwiLYQUsx36Da8sF-11" vertex="1">
                    <mxGeometry y="60" width="140" height="30" as="geometry"/>
                </mxCell>
                <mxCell id="THLaUwiLYQUsx36Da8sF-14" value="FK_Library_ID" style="text;strokeColor=none;fillColor=none;align=left;verticalAlign=middle;spacingLeft=4;spacingRight=4;overflow=hidden;points=[[0,0.5],[1,0.5]];portConstraint=eastwest;rotatable=0;fontColor=#000000;" parent="THLaUwiLYQUsx36Da8sF-11" vertex="1">
                    <mxGeometry y="90" width="140" height="30" as="geometry"/>
                </mxCell>
                <mxCell id="THLaUwiLYQUsx36Da8sF-15" value="Library" style="swimlane;fontStyle=0;childLayout=stackLayout;horizontal=1;startSize=30;horizontalStack=0;resizeParent=1;resizeParentMax=0;resizeLast=0;collapsible=1;marginBottom=0;fillColor=#e1d5e7;strokeColor=#9673a6;fontColor=#000000;" parent="Hjjc1uNWq8kmfBGz-ORb-1" vertex="1">
                    <mxGeometry x="460" y="120" width="160" height="240" as="geometry"/>
                </mxCell>
                <mxCell id="THLaUwiLYQUsx36Da8sF-16" value="Library_ID int" style="text;strokeColor=none;fillColor=none;align=left;verticalAlign=middle;spacingLeft=4;spacingRight=4;overflow=hidden;points=[[0,0.5],[1,0.5]];portConstraint=eastwest;rotatable=0;fontColor=#000000;" parent="THLaUwiLYQUsx36Da8sF-15" vertex="1">
                    <mxGeometry y="30" width="160" height="30" as="geometry"/>
                </mxCell>
                <mxCell id="THLaUwiLYQUsx36Da8sF-17" value="Purchase_date int" style="text;strokeColor=none;fillColor=none;align=left;verticalAlign=middle;spacingLeft=4;spacingRight=4;overflow=hidden;points=[[0,0.5],[1,0.5]];portConstraint=eastwest;rotatable=0;fontColor=#000000;" parent="THLaUwiLYQUsx36Da8sF-15" vertex="1">
                    <mxGeometry y="60" width="160" height="30" as="geometry"/>
                </mxCell>
                <mxCell id="THLaUwiLYQUsx36Da8sF-18" value="Place of purchase varchar" style="text;strokeColor=none;fillColor=none;align=left;verticalAlign=middle;spacingLeft=4;spacingRight=4;overflow=hidden;points=[[0,0.5],[1,0.5]];portConstraint=eastwest;rotatable=0;fontColor=#000000;" parent="THLaUwiLYQUsx36Da8sF-15" vertex="1">
                    <mxGeometry y="90" width="160" height="30" as="geometry"/>
                </mxCell>
                <mxCell id="THLaUwiLYQUsx36Da8sF-19" value="Book owner varchar" style="text;strokeColor=none;fillColor=none;align=left;verticalAlign=middle;spacingLeft=4;spacingRight=4;overflow=hidden;points=[[0,0.5],[1,0.5]];portConstraint=eastwest;rotatable=0;fontColor=#000000;" parent="THLaUwiLYQUsx36Da8sF-15" vertex="1">
                    <mxGeometry y="120" width="160" height="30" as="geometry"/>
                </mxCell>
                <mxCell id="THLaUwiLYQUsx36Da8sF-20" value="Start reading date int" style="text;strokeColor=none;fillColor=none;align=left;verticalAlign=middle;spacingLeft=4;spacingRight=4;overflow=hidden;points=[[0,0.5],[1,0.5]];portConstraint=eastwest;rotatable=0;fontColor=#000000;" parent="THLaUwiLYQUsx36Da8sF-15" vertex="1">
                    <mxGeometry y="150" width="160" height="30" as="geometry"/>
                </mxCell>
                <mxCell id="THLaUwiLYQUsx36Da8sF-21" value="End reading date int" style="text;strokeColor=none;fillColor=none;align=left;verticalAlign=middle;spacingLeft=4;spacingRight=4;overflow=hidden;points=[[0,0.5],[1,0.5]];portConstraint=eastwest;rotatable=0;fontColor=#000000;" parent="THLaUwiLYQUsx36Da8sF-15" vertex="1">
                    <mxGeometry y="180" width="160" height="30" as="geometry"/>
                </mxCell>
                <mxCell id="THLaUwiLYQUsx36Da8sF-22" value="Position in the library int" style="text;strokeColor=none;fillColor=none;align=left;verticalAlign=middle;spacingLeft=4;spacingRight=4;overflow=hidden;points=[[0,0.5],[1,0.5]];portConstraint=eastwest;rotatable=0;fontColor=#000000;" parent="THLaUwiLYQUsx36Da8sF-15" vertex="1">
                    <mxGeometry y="210" width="160" height="30" as="geometry"/>
                </mxCell>
                <mxCell id="THLaUwiLYQUsx36Da8sF-23" value="" style="edgeStyle=elbowEdgeStyle;elbow=horizontal;endArrow=ERone;html=1;fontColor=#FFFCFE;strokeColor=#000000;endFill=0;" parent="Hjjc1uNWq8kmfBGz-ORb-1" edge="1">
                    <mxGeometry width="50" height="50" relative="1" as="geometry">
                        <mxPoint x="190" y="160" as="sourcePoint"/>
                        <mxPoint x="240" y="230" as="targetPoint"/>
                    </mxGeometry>
                </mxCell>
                <mxCell id="THLaUwiLYQUsx36Da8sF-24" value="" style="edgeStyle=elbowEdgeStyle;elbow=horizontal;endArrow=ERone;html=1;fontColor=#FFFCFE;strokeColor=#000000;entryX=0;entryY=0.5;entryDx=0;entryDy=0;endFill=0;" parent="Hjjc1uNWq8kmfBGz-ORb-1" target="THLaUwiLYQUsx36Da8sF-16" edge="1">
                    <mxGeometry width="50" height="50" relative="1" as="geometry">
                        <mxPoint x="390" y="265" as="sourcePoint"/>
                        <mxPoint x="440" y="215" as="targetPoint"/>
                    </mxGeometry>
                </mxCell>
            </root>
        </mxGraphModel>
    </diagram>
</mxfile>